<?xml version="1.0" encoding="iso-8859-1"?>
<!-- Generator: Adobe Illustrator 19.0.0, SVG Export Plug-In . SVG Version: 6.00 Build 0)  -->
<svg version="1.1" id="Layer_1" xmlns="http://www.w3.org/2000/svg" xmlns:xlink="http://www.w3.org/1999/xlink" x="0px" y="0px"
	 viewBox="0 0 512 512" style="enable-background:new 0 0 512 512;" xml:space="preserve">
<path style="fill:#E5E5E5;" d="M256,43.462c-107.841,0-195.578,87.736-195.578,195.578v137.805c0,13.151,10.7,23.851,23.851,23.851
	s23.851-10.7,23.851-23.851V239.039c0-81.539,66.336-147.876,147.876-147.876S403.876,157.5,403.876,239.039v139.925
	c0,13.151,10.7,23.851,23.851,23.851s23.851-10.7,23.851-23.851V239.039C451.578,131.198,363.841,43.462,256,43.462z"/>
<path style="fill:#999999;" d="M368.018,65.922C334.649,44.293,295.914,32.861,256,32.861c-39.917,0-78.654,11.434-112.024,33.064
	c-15.94,10.333-20.502,31.708-10.169,47.649c6.378,9.839,17.195,15.714,28.934,15.714c6.646,0,13.117-1.918,18.715-5.545
	c22.182-14.378,47.959-21.979,74.544-21.979c26.584,0,52.36,7.599,74.54,21.976c12.276,7.96,28.764,7.188,40.211-1.944
	c2.905-2.317,5.419-5.109,7.439-8.227C388.522,97.63,383.959,76.255,368.018,65.922z"/>
<path style="fill:#666666;" d="M349.211,113.395c-3.532,0-6.997-1.037-10.02-2.996C314.425,94.347,285.659,85.863,256,85.863
	c-29.662,0-58.429,8.485-83.192,24.537c-3.016,1.955-6.497,2.987-10.066,2.987c-6.328,0-12.157-3.163-15.591-8.462
	c-5.564-8.584-3.108-20.093,5.475-25.657C183.413,59.31,219.16,48.762,256,48.762c36.839,0,72.583,10.547,103.37,30.502
	c8.583,5.564,11.04,17.073,5.477,25.656c-2.696,4.16-6.849,7.019-11.694,8.053C351.845,113.254,350.52,113.395,349.211,113.395z"/>
<path style="fill:#62C9CC;" d="M431.967,306.352c-3.737,0-7.562,0.276-11.369,0.817c-3.918,0.558-6.829,3.913-6.829,7.871v142.689
	c0,3.957,2.911,7.312,6.829,7.871c3.807,0.543,7.631,0.817,11.369,0.817c44.131,0,80.033-35.903,80.033-80.033
	S476.097,306.352,431.967,306.352z"/>
<path style="fill:#50A9A9;" d="M431.967,306.352c-3.737,0-7.562,0.276-11.369,0.817c-3.918,0.558-6.829,3.913-6.829,7.871v142.689
	c0,3.957,2.911,7.312,6.829,7.871c3.807,0.543,7.631,0.817,11.369,0.817c13.102,0,25.467-3.185,36.394-8.79V315.142
	C457.434,309.537,445.069,306.352,431.967,306.352z"/>
<path style="fill:#FEE7BE;" d="M450.518,293.631h-38.692c-13.172,0-23.851,10.679-23.851,23.851v137.805
	c0,13.172,10.679,23.851,23.851,23.851h14.841c13.172,0,23.851-10.679,23.851-23.851V293.631z"/>
<path style="fill:#F7D04A;" d="M450.518,455.288V293.631h-38.692v185.507h14.841C439.839,479.139,450.518,468.46,450.518,455.288z"
	/>
<path style="fill:#62C9CC;" d="M91.402,307.169c-3.807-0.542-7.632-0.817-11.369-0.817C35.903,306.352,0,342.255,0,386.385
	s35.903,80.033,80.033,80.033c3.737,0,7.562-0.276,11.369-0.817c3.918-0.558,6.829-3.913,6.829-7.871V315.04
	C98.231,311.083,95.32,307.728,91.402,307.169z"/>
<path style="fill:#50A9A9;" d="M91.402,307.169c-3.807-0.542-7.632-0.817-11.369-0.817c-13.102,0-25.467,3.185-36.394,8.79v142.485
	c10.927,5.606,23.292,8.791,36.394,8.791c3.737,0,7.562-0.276,11.369-0.817c3.918-0.558,6.829-3.913,6.829-7.871V315.04
	C98.231,311.083,95.32,307.728,91.402,307.169z"/>
<path style="fill:#FEE7BE;" d="M100.174,293.631H61.482v161.656c0,13.172,10.679,23.851,23.851,23.851h14.841
	c13.172,0,23.851-10.679,23.851-23.851V317.482C124.025,304.31,113.346,293.631,100.174,293.631z"/>
<path style="fill:#F7D04A;" d="M61.482,455.288c0,13.172,10.679,23.851,23.851,23.851h14.841V293.631H61.482V455.288z"/>
<path style="fill:#EB6836;" d="M261.331,201.324c-2.294-1.462-5.173-1.648-7.633-0.498l-62.003,28.935h-36.399
	c-4.392,0-7.95,3.559-7.95,7.95v50.882c0,4.392,3.559,7.95,7.95,7.95h36.399l62.003,28.935c5.189,2.426,11.313-1.502,11.313-7.204
	V208.03C265.01,205.313,263.622,202.784,261.331,201.324z"/>
<rect x="179.677" y="229.764" style="fill:#C74B38;" width="12.018" height="66.783"/>
<g>
	<path style="fill:#F7D04A;" d="M285.681,296.631c-6.959,0-10.522-8.687-5.613-13.582c5.328-5.31,8.263-12.377,8.263-19.898
		c0-7.522-2.934-14.588-8.261-19.897c-3.111-3.1-3.119-8.134-0.02-11.243c3.099-3.112,8.133-3.121,11.243-0.02
		c8.343,8.314,12.938,19.38,12.938,31.16c0,11.778-4.595,22.845-12.938,31.161C289.742,295.859,287.711,296.631,285.681,296.631z"/>
	<path style="fill:#F7D04A;" d="M310.957,317.744c-6.666,0-10.343-8.048-6.055-13.097c9.822-11.562,15.231-26.3,15.231-41.495
		c0-21.349-10.579-41.236-28.301-53.199c-3.639-2.456-4.598-7.398-2.141-11.037c2.455-3.641,7.398-4.6,11.037-2.141
		c22.107,14.924,35.306,39.738,35.306,66.378c0,18.963-6.752,37.355-19.014,51.788C315.447,316.792,313.209,317.744,310.957,317.744
		z"/>
	<path style="fill:#F7D04A;" d="M334.671,338.945c-6.695,0-10.362-8.108-6.016-13.145c15.011-17.391,23.279-39.64,23.279-62.648
		c0-29.88-13.561-57.531-37.207-75.864c-3.47-2.689-4.101-7.684-1.411-11.154c2.69-3.468,7.685-4.102,11.154-1.411
		c27.56,21.365,43.365,53.597,43.365,88.429c0,26.821-9.64,52.759-27.141,73.037C339.12,338.011,336.901,338.945,334.671,338.945z"
		/>
</g>
<g>
</g>
<g>
</g>
<g>
</g>
<g>
</g>
<g>
</g>
<g>
</g>
<g>
</g>
<g>
</g>
<g>
</g>
<g>
</g>
<g>
</g>
<g>
</g>
<g>
</g>
<g>
</g>
<g>
</g>
</svg>
